<svg width="30" height="31" viewBox="0 0 30 31" fill="none" xmlns="http://www.w3.org/2000/svg">
<g clip-path="url(#clip0)">
<path d="M17.4045 14.7595L14.0355 13.1875C13.7415 13.051 13.5 13.204 13.5 13.5295V16.4905C13.5 16.816 13.7415 16.969 14.0355 16.8325L17.403 15.2605C17.6985 15.1225 17.6985 14.8975 17.4045 14.7595ZM15 0.609985C7.04701 0.609985 0.600006 7.05699 0.600006 15.01C0.600006 22.963 7.04701 29.41 15 29.41C22.953 29.41 29.4 22.963 29.4 15.01C29.4 7.05699 22.953 0.609985 15 0.609985ZM15 20.86C7.62901 20.86 7.50001 20.1955 7.50001 15.01C7.50001 9.82449 7.62901 9.15998 15 9.15998C22.371 9.15998 22.5 9.82449 22.5 15.01C22.5 20.1955 22.371 20.86 15 20.86Z" fill="#FF7F00"/>
</g>
<defs>
<clipPath id="clip0">
<rect width="30" height="30" fill="white" transform="translate(0 0.0100098)"/>
</clipPath>
</defs>
</svg>
