<svg width="30" height="31" viewBox="0 0 30 31" fill="none" xmlns="http://www.w3.org/2000/svg">
<g clip-path="url(#clip0)">
<path d="M15 0.609985C7.04701 0.609985 0.600006 7.05699 0.600006 15.01C0.600006 22.963 7.04701 29.41 15 29.41C22.953 29.41 29.4 22.963 29.4 15.01C29.4 7.05699 22.953 0.609985 15 0.609985ZM11.475 20.9785H8.55901V11.5945H11.475V20.9785ZM9.99901 10.4425C9.07801 10.4425 8.48251 9.78998 8.48251 8.98298C8.48251 8.15948 9.09601 7.52649 10.0365 7.52649C10.977 7.52649 11.553 8.15948 11.571 8.98298C11.571 9.78998 10.977 10.4425 9.99901 10.4425ZM22.125 20.9785H19.209V15.778C19.209 14.5675 18.786 13.7455 17.7315 13.7455C16.926 13.7455 16.4475 14.302 16.236 14.8375C16.158 15.028 16.1385 15.298 16.1385 15.5665V20.977H13.221V14.587C13.221 13.4155 13.1835 12.436 13.1445 11.593H15.678L15.8115 12.8965H15.87C16.254 12.2845 17.1945 11.3815 18.768 11.3815C20.6865 11.3815 22.125 12.667 22.125 15.43V20.9785Z" fill="#FF7F00"/>
</g>
<defs>
<clipPath id="clip0">
<rect width="30" height="30" fill="white" transform="translate(0 0.0100098)"/>
</clipPath>
</defs>
</svg>
