<svg width="30" height="31" viewBox="0 0 30 31" fill="none" xmlns="http://www.w3.org/2000/svg">
<g clip-path="url(#clip0)">
<path d="M15 0.609985C7.04701 0.609985 0.600006 7.05699 0.600006 15.01C0.600006 22.963 7.04701 29.41 15 29.41C22.953 29.41 29.4 22.963 29.4 15.01C29.4 7.05699 22.953 0.609985 15 0.609985ZM18.411 10.561H16.2465C15.99 10.561 15.705 10.8985 15.705 11.347V12.91H18.4125L18.003 15.139H15.705V21.8305H13.1505V15.139H10.833V12.91H13.1505V11.599C13.1505 9.71799 14.4555 8.18949 16.2465 8.18949H18.411V10.561Z" fill="#FF7F00"/>
</g>
<defs>
<clipPath id="clip0">
<rect width="30" height="30" fill="white" transform="translate(0 0.0100098)"/>
</clipPath>
</defs>
</svg>
