<svg width="30" height="31" viewBox="0 0 30 31" fill="none" xmlns="http://www.w3.org/2000/svg">
<g clip-path="url(#clip0)">
<path d="M15 0.609985C7.04701 0.609985 0.600006 7.05699 0.600006 15.01C0.600006 22.963 7.04701 29.41 15 29.41C22.953 29.41 29.4 22.963 29.4 15.01C29.4 7.05699 22.953 0.609985 15 0.609985ZM20.8575 12.406C20.8635 12.529 20.865 12.652 20.865 12.772C20.865 16.522 18.0135 20.8435 12.7965 20.8435C11.2549 20.846 9.74546 20.4033 8.44951 19.5685C8.67001 19.5955 8.89651 19.606 9.12601 19.606C10.455 19.606 11.6775 19.1545 12.648 18.3925C12.0566 18.3809 11.4835 18.185 11.0087 17.8323C10.5338 17.4795 10.1809 16.9874 9.99901 16.4245C10.4237 16.5052 10.8613 16.4883 11.2785 16.375C10.6366 16.2452 10.0593 15.8974 9.64457 15.3905C9.22983 14.8836 9.00317 14.2489 9.00301 13.594V13.5595C9.38551 13.771 9.82351 13.9 10.2885 13.915C9.6867 13.5144 9.26068 12.899 9.09757 12.1947C8.93446 11.4904 9.04658 10.7504 9.41101 10.126C10.1234 11.002 11.0119 11.7186 12.0189 12.2295C13.0258 12.7403 14.1288 13.034 15.2565 13.0915C15.1131 12.4829 15.1748 11.8441 15.432 11.2742C15.6892 10.7044 16.1274 10.2355 16.6786 9.94038C17.2298 9.64529 17.863 9.54057 18.4798 9.64249C19.0967 9.74442 19.6626 10.0473 20.0895 10.504C20.7243 10.3784 21.333 10.1456 21.8895 9.81549C21.6779 10.4727 21.235 11.0307 20.643 11.386C21.2053 11.3183 21.7543 11.1671 22.272 10.9375C21.8917 11.5073 21.4127 12.0046 20.8575 12.406Z" fill="#FF7F00"/>
</g>
<defs>
<clipPath id="clip0">
<rect width="30" height="30" fill="white" transform="translate(0 0.0100098)"/>
</clipPath>
</defs>
</svg>
