<svg width="88" height="64" viewBox="0 0 88 64" fill="none" xmlns="http://www.w3.org/2000/svg">
<path d="M25.6871 51.0476C36.2068 51.0476 44.7347 42.5197 44.7347 32C44.7347 21.4803 36.2068 12.9524 25.6871 12.9524C15.1674 12.9524 6.63947 21.4803 6.63947 32C6.63947 42.5197 15.1674 51.0476 25.6871 51.0476Z" fill="#FF7F00" stroke="#FF7F00" stroke-width="5"/>
<path d="M25.6871 45.0611C32.9006 45.0611 38.7483 39.2134 38.7483 31.9999C38.7483 24.7864 32.9006 18.9387 25.6871 18.9387C18.4736 18.9387 12.6259 24.7864 12.6259 31.9999C12.6259 39.2134 18.4736 45.0611 25.6871 45.0611Z" fill="#FF7F00" stroke="#D8D8D8"/>
<path d="M33.5033 32.8708C33.7892 32.2993 34.0748 31.7346 34.3606 31.1769C34.6462 30.6055 34.9048 30.0748 35.136 29.585C35.3674 29.0952 35.5646 28.6598 35.7279 28.2789C35.8911 27.8844 35.9863 27.5714 36.0137 27.3402C36.0407 27.0953 36.0204 26.8844 35.9523 26.7076C35.8844 26.5306 35.7686 26.3878 35.6053 26.279C35.4558 26.1701 35.272 26.0885 35.0543 26.0341C34.8504 25.9659 34.619 25.9252 34.3606 25.9115C33.9115 25.8843 33.374 25.898 32.7484 25.9524C32.136 25.9931 31.5441 26.0815 30.9727 26.2178C30.4013 26.3401 29.9047 26.5169 29.4831 26.7483C29.0747 26.9797 28.857 27.2653 28.83 27.6053C28.8163 27.796 28.8503 27.966 28.9319 28.1156C29 28.2382 29.1224 28.3537 29.2994 28.4626C29.4898 28.5714 29.7687 28.6124 30.1361 28.5849C30.2041 28.5849 30.2857 28.5782 30.3808 28.5647C30.4627 28.551 30.5645 28.5375 30.6871 28.5238C30.8094 28.4965 30.9525 28.4626 31.1157 28.4217L30.1157 29.7687C29.9252 30.0408 29.721 30.2041 29.5033 30.2585C29.2856 30.3129 29.0884 30.3264 28.9114 30.2994C28.8163 30.2857 28.6258 30.238 28.3402 30.1564C28.0681 30.0748 27.789 29.9524 27.5034 29.7892C27.2313 29.6259 26.9932 29.4082 26.789 29.1361C26.585 28.8503 26.5034 28.4965 26.5443 28.0749C26.5987 27.5851 26.8095 27.136 27.1769 26.7278C27.5441 26.3062 28.0544 25.9457 28.7075 25.6462C29.3742 25.3471 30.1631 25.1157 31.0748 24.9524C32 24.7891 33.0407 24.7075 34.1973 24.7075C35.0681 24.7075 35.7618 24.8028 36.2788 24.9931C36.7958 25.1701 37.17 25.4082 37.4012 25.7075C37.6463 25.9931 37.7619 26.3334 37.7482 26.7278C37.7482 27.1088 37.6666 27.5035 37.5033 27.9116C37.4217 28.1021 37.2994 28.3672 37.1361 28.7075C36.9863 29.034 36.8026 29.4217 36.5849 29.8708C36.3672 30.3062 36.136 30.7892 35.8911 31.3197C35.6462 31.8502 35.4013 32.4014 35.1564 32.9728C35.5239 33.0001 35.8572 33.034 36.1565 33.0749C36.4693 33.1156 36.7142 33.1496 36.8912 33.1768C37.0952 33.2312 37.1633 33.3196 37.0952 33.4422C36.9728 33.6871 36.8503 33.8708 36.7279 33.9931C36.6191 34.1157 36.4965 34.2041 36.3605 34.2585C36.2244 34.2992 36.0749 34.3197 35.9116 34.3197C35.7483 34.3062 35.5646 34.2925 35.3606 34.279C35.2381 34.279 35.1155 34.279 34.9932 34.279C34.8708 34.2653 34.7415 34.2518 34.6055 34.238C34.3469 34.8504 34.0952 35.4558 33.8503 36.0544C33.6191 36.6531 33.4014 37.2245 33.1973 37.7687C33.0068 38.2994 32.8368 38.7892 32.687 39.2381C32.5375 39.687 32.4354 40.0612 32.3809 40.3605C32.2993 40.7824 32.2381 41.1768 32.1972 41.5443C32.17 41.8571 32.1565 42.1836 32.1565 42.5239C32.1565 42.8639 32.2109 43.136 32.3198 43.3402C32.0339 43.4218 31.7823 43.4897 31.5646 43.5442C31.3604 43.5986 31.1837 43.6395 31.0339 43.6667C30.8706 43.7074 30.7348 43.7416 30.6259 43.7686C30.245 43.8639 29.9729 43.8504 29.8096 43.7279C29.6598 43.619 29.6189 43.3469 29.6871 42.9116C29.7143 42.6122 29.7552 42.2722 29.8096 41.8913C29.8775 41.5238 29.9729 41.1019 30.0952 40.6258C30.2313 40.1633 30.4013 39.6463 30.6055 39.0748C30.8232 38.4897 31.0953 37.8436 31.4218 37.1361C31.6123 36.7279 31.83 36.2789 32.0749 35.7891C32.3198 35.2858 32.5782 34.7483 32.8503 34.1769C32.2516 34.1769 31.6055 34.2178 30.9115 34.2992C30.5306 34.3536 30.1564 34.415 29.7891 34.4829C29.4761 34.5511 29.1361 34.6327 28.7686 34.7278C28.4149 34.8095 28.0816 34.9048 27.7686 35.0137C27.7279 34.9048 27.7007 34.796 27.6872 34.6871C27.6872 34.5783 27.6939 34.4762 27.7074 34.3811C27.7211 34.2857 27.7416 34.1904 27.7686 34.0952C27.796 34.0001 27.8367 33.9048 27.8911 33.8094C27.9728 33.6462 28.1021 33.4422 28.2788 33.1973C28.9184 33.1156 29.5305 33.0545 30.1157 33.0136C30.7006 32.9728 31.2176 32.9387 31.6667 32.9117C32.1972 32.8842 32.694 32.8708 33.1563 32.8708C33.2245 32.8573 33.2789 32.8573 33.3196 32.8708C33.374 32.8708 33.4354 32.8708 33.5033 32.8708ZM44.3907 36.8096C44.2547 37.3266 44.0709 37.8096 43.8398 38.2585C43.6084 38.7074 43.3295 39.0953 43.003 39.4218C42.6899 39.7484 42.3294 40 41.9213 40.1768C41.5268 40.3675 41.0915 40.4626 40.6152 40.4626C40.0574 40.4626 39.6151 40.34 39.2886 40.0953C38.9758 39.8639 38.7376 39.5714 38.5743 39.2176C38.4248 38.8639 38.3362 38.4762 38.309 38.0543C38.2683 37.6327 38.2478 37.238 38.2478 36.8707C38.2478 36.6124 38.2818 36.3265 38.3499 36.0137C38.4043 35.7007 38.486 35.3809 38.5948 35.0544C38.7037 34.7278 38.8397 34.4013 39.003 34.0748C39.1797 33.7482 39.3839 33.4489 39.6151 33.1768C39.6967 32.9456 39.8193 32.7414 39.9826 32.5647C40.1593 32.3877 40.3568 32.2449 40.5745 32.1361C40.8056 32.0135 41.0505 31.9251 41.3091 31.8707C41.5675 31.8028 41.8192 31.7688 42.0641 31.7688C42.105 31.7688 42.139 31.7756 42.1662 31.7891C42.2071 31.8028 42.2478 31.8163 42.2887 31.83C42.4655 31.8435 42.6832 31.9116 42.9418 32.034C43.2139 32.1565 43.4723 32.34 43.7172 32.5851C43.9758 32.8298 44.1935 33.1429 44.3703 33.5238C44.5472 33.8913 44.6356 34.3401 44.6356 34.8709C44.6356 34.9797 44.6289 35.1155 44.6152 35.2788C44.6017 35.4286 44.588 35.5579 44.5745 35.6667C44.8873 35.5442 45.2138 35.3946 45.554 35.2176C45.8941 35.0409 46.2206 34.8571 46.5336 34.6667C46.8602 34.4625 47.1595 34.2585 47.4316 34.0545C47.7037 33.8503 47.9214 33.6666 48.0847 33.5034C48.2207 33.381 48.3363 33.3129 48.4314 33.2994C48.5268 33.2857 48.5947 33.3129 48.6356 33.381C48.6763 33.4489 48.6833 33.5443 48.6561 33.6666C48.6289 33.7892 48.554 33.9252 48.4314 34.0748C48.3635 34.1564 48.1865 34.3197 47.9009 34.5646C47.6288 34.8095 47.3023 35.0748 46.9213 35.3607C46.5404 35.6463 46.1255 35.9251 45.6764 36.1972C45.2275 36.4693 44.7989 36.6735 44.3907 36.8096ZM40.9417 33.7075C40.901 33.8299 40.8805 33.9592 40.8805 34.0952C40.8805 34.3129 40.894 34.5443 40.9212 34.789C40.9484 35.0204 41.0166 35.2313 41.1254 35.4218C41.2343 35.6123 41.4043 35.7756 41.6357 35.9116C41.8806 36.034 42.2139 36.0951 42.6355 36.0951C42.7036 36.0951 42.7716 36.0951 42.8397 36.0951C42.9076 36.0816 42.9758 36.0681 43.0437 36.0544C43.0846 35.8774 43.1186 35.7211 43.1458 35.5851C43.1867 35.4353 43.2069 35.3062 43.2069 35.1974C43.2342 34.9388 43.2342 34.6734 43.2069 34.4013C43.1797 34.1292 43.1253 33.8843 43.0437 33.6666C42.9758 33.4354 42.8804 33.2517 42.7581 33.1156C42.6492 32.9661 42.5132 32.8912 42.3499 32.8912C42.0913 32.8912 41.8397 32.9661 41.5948 33.1156C41.3636 33.2517 41.1459 33.4489 40.9417 33.7075ZM39.6356 37.2994C39.6356 37.5443 39.6493 37.7892 39.6765 38.0341C39.7037 38.2653 39.7581 38.4762 39.8398 38.6667C39.9214 38.8436 40.0302 38.9932 40.1663 39.1158C40.3023 39.2246 40.4791 39.279 40.6968 39.279C40.9417 39.279 41.1661 39.2246 41.3703 39.1158C41.5743 38.9932 41.758 38.8436 41.9213 38.6667C42.0845 38.4762 42.2274 38.2653 42.3499 38.0341C42.486 37.7892 42.6016 37.5375 42.6969 37.2789C42.6016 37.2924 42.5064 37.3061 42.4111 37.3198C42.3294 37.3198 42.2343 37.3198 42.1255 37.3198C41.6085 37.3198 41.1594 37.1701 40.7784 36.8707C40.4112 36.5579 40.1254 36.1633 39.9214 35.6872C39.8398 35.9728 39.7716 36.2516 39.7172 36.5238C39.6628 36.7959 39.6356 37.0545 39.6356 37.2994ZM53.0331 36.8096C52.8971 37.3266 52.7133 37.8096 52.4822 38.2585C52.2507 38.7074 51.9719 39.0953 51.6454 39.4218C51.3325 39.7484 50.9718 40 50.5637 40.1768C50.1692 40.3675 49.7339 40.4626 49.2576 40.4626C48.6998 40.4626 48.2577 40.34 47.9312 40.0953C47.6182 39.8639 47.38 39.5714 47.2167 39.2176C47.0672 38.8639 46.9788 38.4762 46.9516 38.0543C46.9107 37.6327 46.8902 37.238 46.8902 36.8707C46.8902 36.6124 46.9244 36.3265 46.9923 36.0137C47.0467 35.7007 47.1284 35.3809 47.2372 35.0544C47.346 34.7278 47.4821 34.4013 47.6454 34.0748C47.8223 33.7482 48.0263 33.4489 48.2577 33.1768C48.3394 32.9456 48.4617 32.7414 48.625 32.5647C48.8019 32.3877 48.9992 32.2449 49.2168 32.1361C49.448 32.0135 49.6929 31.9251 49.9515 31.8707C50.2099 31.8028 50.4618 31.7688 50.7067 31.7688C50.7474 31.7688 50.7814 31.7756 50.8086 31.7891C50.8495 31.8028 50.8902 31.8163 50.9311 31.83C51.1079 31.8435 51.3256 31.9116 51.5842 32.034C51.8563 32.1565 52.1147 32.34 52.3596 32.5851C52.6182 32.8298 52.8359 33.1429 53.0127 33.5238C53.1896 33.8913 53.278 34.3401 53.278 34.8709C53.278 34.9797 53.2713 35.1155 53.2576 35.2788C53.2441 35.4286 53.2303 35.5579 53.2168 35.6667C53.5297 35.5442 53.8562 35.3946 54.1964 35.2176C54.5365 35.0409 54.863 34.8571 55.176 34.6667C55.5026 34.4625 55.8019 34.2585 56.074 34.0545C56.3461 33.8503 56.5638 33.6666 56.727 33.5034C56.8631 33.381 56.9787 33.3129 57.074 33.2994C57.1692 33.2857 57.2373 33.3129 57.278 33.381C57.3189 33.4489 57.3257 33.5443 57.2985 33.6666C57.2713 33.7892 57.1964 33.9252 57.074 34.0748C57.0059 34.1564 56.8291 34.3197 56.5433 34.5646C56.2712 34.8095 55.9447 35.0748 55.5637 35.3607C55.1828 35.6463 54.7679 35.9251 54.3188 36.1972C53.8699 36.4693 53.4413 36.6735 53.0331 36.8096ZM49.5841 33.7075C49.5434 33.8299 49.5229 33.9592 49.5229 34.0952C49.5229 34.3129 49.5366 34.5443 49.5638 34.789C49.5911 35.0204 49.659 35.2313 49.7678 35.4218C49.8767 35.6123 50.0467 35.7756 50.2781 35.9116C50.523 36.034 50.8562 36.0951 51.2781 36.0951C51.346 36.0951 51.4142 36.0951 51.4821 36.0951C51.5502 36.0816 51.6182 36.0681 51.6863 36.0544C51.727 35.8774 51.761 35.7211 51.7882 35.5851C51.8291 35.4353 51.8496 35.3062 51.8496 35.1974C51.8768 34.9388 51.8768 34.6734 51.8496 34.4013C51.8223 34.1292 51.7679 33.8843 51.6863 33.6666C51.6182 33.4354 51.523 33.2517 51.4005 33.1156C51.2916 32.9661 51.1556 32.8912 50.9923 32.8912C50.7339 32.8912 50.482 32.9661 50.2371 33.1156C50.006 33.2517 49.7883 33.4489 49.5841 33.7075ZM48.278 37.2994C48.278 37.5443 48.2917 37.7892 48.3189 38.0341C48.3461 38.2653 48.4005 38.4762 48.4822 38.6667C48.5638 38.8436 48.6726 38.9932 48.8087 39.1158C48.9447 39.2246 49.1215 39.279 49.3392 39.279C49.5841 39.279 49.8087 39.2246 50.0127 39.1158C50.2169 38.9932 50.4004 38.8436 50.5637 38.6667C50.7269 38.4762 50.87 38.2653 50.9923 38.0341C51.1284 37.7892 51.2439 37.5375 51.3393 37.2789C51.2439 37.2924 51.1488 37.3061 51.0535 37.3198C50.9718 37.3198 50.8767 37.3198 50.7679 37.3198C50.2509 37.3198 49.8018 37.1701 49.4208 36.8707C49.0536 36.5579 48.7678 36.1633 48.5638 35.6872C48.4822 35.9728 48.414 36.2516 48.3596 36.5238C48.3052 36.7959 48.278 37.0545 48.278 37.2994ZM62.1246 36.1565C62.0565 36.5782 61.9885 36.9796 61.9204 37.3605C61.866 37.7415 61.832 38.0476 61.8185 38.279C61.8048 38.619 61.866 38.8639 62.002 39.0137C62.1381 39.1632 62.2879 39.2381 62.4511 39.2381C62.6416 39.2381 62.8728 39.1427 63.1449 38.9525C63.4307 38.7618 63.73 38.5239 64.0429 38.238C64.3559 37.9524 64.6687 37.6394 64.9817 37.2994C65.2946 36.9591 65.5804 36.6393 65.8388 36.3402C66.1109 36.0272 66.3355 35.7551 66.5123 35.5239C66.7028 35.2925 66.8321 35.143 66.9 35.0748C66.9816 34.9932 67.0633 34.9455 67.1449 34.932C67.2402 34.9183 67.3151 34.932 67.3696 34.9727C67.424 35.0137 67.4512 35.0885 67.4512 35.1974C67.4512 35.3062 67.3968 35.4421 67.2879 35.6053C67.1247 35.8639 66.9137 36.17 66.6551 36.5238C66.3967 36.864 66.1109 37.2177 65.7981 37.585C65.485 37.9524 65.1518 38.3129 64.798 38.6667C64.458 39.0204 64.111 39.3334 63.7573 39.6056C63.417 39.8777 63.0837 40.0953 62.7572 40.2586C62.4444 40.4354 62.1586 40.5238 61.9002 40.5238C61.7097 40.5238 61.526 40.4693 61.349 40.3605C61.1857 40.2516 61.0362 40.1088 60.9001 39.9321C60.7641 39.7551 60.6552 39.5579 60.5736 39.3402C60.5054 39.1225 60.4782 38.9048 60.4919 38.6871C60.5054 38.5918 60.5259 38.4285 60.5531 38.1973C59.9817 38.8367 59.4035 39.3469 58.8184 39.7279C58.2469 40.0953 57.696 40.2789 57.1655 40.2789C56.975 40.2789 56.7708 40.2312 56.5531 40.1361C56.3354 40.0409 56.1382 39.8844 55.9612 39.6667C55.798 39.449 55.6619 39.1632 55.5531 38.8095C55.4442 38.4557 55.4035 38.0273 55.4307 37.5238C55.4714 36.7347 55.6279 35.9863 55.9001 35.2788C56.1722 34.5713 56.5124 33.9592 56.9206 33.4422C57.3422 32.9117 57.8116 32.4965 58.3286 32.1972C58.8593 31.8844 59.3898 31.7279 59.9205 31.7279C60.1517 31.7279 60.3626 31.7891 60.5531 31.9116C60.7436 32.0205 60.9069 32.17 61.0429 32.3605C61.179 32.5375 61.2878 32.7347 61.3694 32.9524C61.4648 33.1701 61.5327 33.374 61.5736 33.5647C61.6688 33.1701 61.7571 32.7824 61.8388 32.4014C61.9204 32.0205 62.002 31.66 62.0837 31.3197C62.2197 30.8162 62.3627 30.272 62.5123 29.6871C62.6483 29.1836 62.8049 28.6054 62.9816 27.9523C63.1586 27.2993 63.3558 26.6123 63.5735 25.8913C63.7096 25.7824 63.8389 25.7006 63.9612 25.6462C64.0838 25.5917 64.1994 25.551 64.3082 25.5238C64.4308 25.4829 64.5464 25.4626 64.6552 25.4626C64.7913 25.4626 64.9136 25.4829 65.0224 25.5238C65.1313 25.551 65.2199 25.6394 65.2878 25.7892C65.3694 25.9252 65.4239 26.136 65.4511 26.4218C65.4783 26.7076 65.4783 27.0953 65.4511 27.5851C65.4239 28.1837 65.315 28.8368 65.1245 29.5443C64.9478 30.2518 64.7096 30.9865 64.4103 31.7484C64.111 32.4965 63.764 33.2517 63.3696 34.0136C62.9886 34.762 62.5735 35.4762 62.1246 36.1565ZM60.9206 36.4217C60.975 36.1633 61.0225 35.9049 61.0634 35.6463C61.1178 35.3876 61.179 35.1225 61.2471 34.8504C61.2199 34.8639 61.1927 34.8776 61.1655 34.8911C61.1518 34.9048 61.1313 34.9183 61.1041 34.932C60.9545 34.9999 60.8524 34.9999 60.798 34.932C60.7436 34.8504 60.7164 34.7278 60.7164 34.5646C60.7164 34.4829 60.7096 34.3401 60.6959 34.1359C60.6824 33.9183 60.6415 33.7006 60.5736 33.4829C60.5192 33.2517 60.4308 33.0545 60.3082 32.8912C60.1859 32.7142 60.0156 32.6259 59.798 32.6259C59.4851 32.6259 59.1654 32.7891 58.8388 33.1156C58.5123 33.4285 58.2062 33.8164 57.9204 34.279C57.6348 34.7278 57.3967 35.2109 57.2062 35.7279C57.0157 36.2449 56.9069 36.7075 56.8796 37.1156C56.8524 37.7687 56.9341 38.238 57.1245 38.5239C57.315 38.8095 57.5736 38.9525 57.9002 38.9525C58.1451 38.9525 58.4102 38.8571 58.696 38.6667C58.9953 38.4762 59.281 38.245 59.5531 37.9729C59.8389 37.7008 60.0973 37.4217 60.3287 37.1361C60.5736 36.8503 60.7708 36.6124 60.9206 36.4217ZM70.6446 28.034C70.6037 28.1837 70.5221 28.3333 70.3997 28.4831C70.2909 28.6191 70.1616 28.7347 70.0118 28.83C69.8758 28.9115 69.733 28.9659 69.5834 28.9933C69.4337 29.0203 69.3113 28.9933 69.216 28.9115C68.9304 28.6938 68.7806 28.4626 68.7671 28.2177C68.7534 27.9593 68.8146 27.7211 68.9506 27.5035C69.0867 27.2721 69.2569 27.0816 69.4609 26.932C69.6651 26.7688 69.8418 26.6734 69.9916 26.6462C70.1411 26.619 70.2637 26.6532 70.3588 26.7483C70.4677 26.8299 70.5493 26.9455 70.6037 27.0953C70.6581 27.2314 70.6854 27.3877 70.6854 27.5646C70.6991 27.7416 70.6854 27.8979 70.6446 28.034ZM67.8282 32.381C67.8964 32.2993 68.0254 32.2312 68.2159 32.1768C68.4064 32.1223 68.6038 32.0816 68.8078 32.0544C69.012 32.0135 69.1955 31.9933 69.3588 31.9933C69.5358 31.9795 69.6378 31.9795 69.6651 31.9933C69.6786 32.0068 69.6446 32.1498 69.563 32.4219C69.4813 32.694 69.3792 33.0136 69.2569 33.381C69.1343 33.7482 69.005 34.1292 68.869 34.5239C68.7329 34.9048 68.631 35.2176 68.5629 35.4625C68.495 35.7074 68.4134 35.9863 68.318 36.2993C68.2229 36.5986 68.1343 36.898 68.0527 37.1973C67.9847 37.4831 67.9371 37.7552 67.9098 38.0136C67.8826 38.272 67.9031 38.4694 67.971 38.6055C68.0392 38.7688 68.114 38.8844 68.1957 38.9525C68.2773 39.0069 68.3657 39.0339 68.4608 39.0339C68.7329 39.0339 69.0732 38.8844 69.4813 38.585C69.903 38.2857 70.3249 37.932 70.7465 37.5238C71.1819 37.1021 71.5833 36.6803 71.9508 36.2584C72.318 35.823 72.5901 35.4762 72.7671 35.2176C72.8759 35.0816 72.9848 34.9932 73.0936 34.9523C73.216 34.9116 73.3113 34.9183 73.3792 34.9727C73.4609 35.0272 73.5018 35.1155 73.5018 35.2381C73.5153 35.3607 73.4746 35.5035 73.3792 35.6667C73.1615 36.0477 72.8418 36.5035 72.4201 37.034C71.9982 37.551 71.5494 38.0543 71.0731 38.5441C70.597 39.0204 70.1276 39.4286 69.6651 39.7688C69.216 40.1088 68.8487 40.2856 68.5629 40.2993C68.3317 40.313 68.1003 40.2721 67.8691 40.1768C67.6515 40.0953 67.4473 39.9795 67.2568 39.83C67.08 39.6667 66.9303 39.483 66.8079 39.279C66.6854 39.0613 66.6174 38.8367 66.6037 38.6055C66.563 38.2653 66.563 37.8027 66.6037 37.2177C66.6447 36.6191 66.7193 36.0137 66.8282 35.4014C66.937 34.7755 67.0731 34.1836 67.2363 33.6259C67.4133 33.068 67.6105 32.6531 67.8282 32.381ZM81.5523 35.8095C81.1441 36.4082 80.6815 36.9933 80.1645 37.5645C79.6475 38.1224 79.0966 38.626 78.5116 39.0748C77.9402 39.5102 77.3483 39.8639 76.736 40.1361C76.1373 40.4082 75.5524 40.5442 74.981 40.5442C74.6817 40.5442 74.3551 40.4693 74.0014 40.3198C73.6611 40.1837 73.3483 39.966 73.0625 39.6667C72.7769 39.3674 72.5455 38.9795 72.3687 38.5034C72.2055 38.0273 72.1578 37.4489 72.2259 36.7687C72.2803 36.2109 72.4504 35.6258 72.736 35.0137C73.0353 34.3878 73.396 33.8164 73.8177 33.2994C74.253 32.7824 74.7361 32.3537 75.2666 32.0135C75.8108 31.6735 76.355 31.5035 76.8992 31.5035C77.4162 31.5035 77.7904 31.6325 78.0218 31.8912C78.253 32.1498 78.3551 32.4693 78.3279 32.8503C78.287 33.2722 78.1647 33.6599 77.9605 34.0136C77.77 34.3673 77.5388 34.6871 77.2667 34.9727C76.9946 35.2586 76.702 35.517 76.3892 35.7484C76.0899 35.9795 75.8041 36.1905 75.5319 36.381C75.2326 36.5849 74.947 36.7824 74.6749 36.9728C74.4028 37.1496 74.1647 37.3129 73.9605 37.4626C73.9742 37.8027 74.0353 38.0885 74.1442 38.3197C74.253 38.5511 74.3891 38.7416 74.5524 38.8911C74.7156 39.0272 74.8993 39.1293 75.1033 39.1972C75.321 39.2516 75.5387 39.279 75.7564 39.279C76.219 39.279 76.702 39.136 77.2055 38.8504C77.7088 38.5511 78.1986 38.1973 78.6749 37.7892C79.1647 37.3673 79.6136 36.9319 80.0217 36.483C80.4436 36.034 80.7904 35.6463 81.0625 35.3197C81.1578 35.2109 81.253 35.1497 81.3483 35.136C81.4572 35.1088 81.5388 35.1225 81.5932 35.1769C81.6611 35.2176 81.6953 35.2993 81.6953 35.4218C81.6953 35.5307 81.6476 35.6598 81.5523 35.8095ZM76.3278 32.6666C76.1645 32.6666 75.9673 32.7484 75.7361 32.9117C75.5184 33.0749 75.3008 33.3129 75.0831 33.6259C74.8654 33.9252 74.6612 34.2992 74.4707 34.7483C74.2802 35.1837 74.1374 35.6872 74.0421 36.2584C74.2054 36.1361 74.3823 36.0137 74.5728 35.8912C74.7633 35.7551 74.9538 35.6123 75.1442 35.4625C75.7292 35.0137 76.1373 34.619 76.3687 34.279C76.5999 33.9387 76.7292 33.6462 76.7564 33.4015C76.7836 33.1429 76.7564 32.9591 76.6748 32.8503C76.5932 32.7279 76.4776 32.6666 76.3278 32.6666Z" fill="black"/>
</svg>
